<?xml version="1.0" standalone="no"?>
<!DOCTYPE svg PUBLIC "-//W3C//DTD SVG 20010904//EN"
 "http://www.w3.org/TR/2001/REC-SVG-20010904/DTD/svg10.dtd">
<svg version="1.0" xmlns="http://www.w3.org/2000/svg"
 width="640.000000pt" height="640.000000pt" viewBox="0 0 640.000000 640.000000"
 preserveAspectRatio="xMidYMid meet">
<metadata>
Created by potrace 1.11, written by Peter Selinger 2001-2013
</metadata>
<g transform="translate(0.000000,640.000000) scale(0.100000,-0.100000)"
fill="#000000" stroke="none">
<path d="M4447 6394 c-1 -1 -38 -4 -82 -7 -44 -3 -93 -12 -110 -21 -16 -9 -36
-16 -42 -16 -15 0 -128 -59 -176 -92 -43 -29 -78 -71 -106 -127 l-23 -43 6
-2307 c3 -1268 7 -2354 10 -2412 6 -119 10 -152 26 -224 23 -106 28 -122 54
-200 109 -319 299 -534 601 -679 79 -38 244 -101 293 -111 9 -2 46 -10 82 -19
75 -17 105 -23 175 -31 28 -3 66 -8 85 -10 98 -13 610 -26 610 -15 0 3 28 5
63 4 195 -1 342 106 418 306 51 135 44 281 -21 415 -59 124 -164 220 -261 241
-71 15 -67 14 -409 29 -264 11 -289 13 -327 25 -60 19 -100 38 -133 66 -36 31
-84 99 -94 134 -23 78 -28 100 -32 145 -11 104 -10 2137 1 2140 5 2 242 6 525
9 283 4 531 8 550 10 78 10 126 47 175 135 58 102 85 312 55 421 -16 60 -51
143 -64 152 -6 4 -8 8 -3 8 11 0 -53 68 -87 93 -15 11 -40 22 -55 24 -14 2
-267 6 -561 9 -294 3 -537 8 -539 10 -2 2 -4 238 -5 524 -1 286 -5 520 -9 520
-4 0 -3 8 2 18 5 10 6 24 1 31 -4 8 -4 26 0 42 5 15 6 30 3 33 -3 3 -7 111 -8
240 -2 132 -7 242 -13 252 -5 11 -10 23 -10 28 1 4 -5 18 -13 30 -63 97 -247
196 -394 212 -49 5 -155 10 -158 8z"/>
<path d="M1509 4496 c-2 -2 -38 -7 -79 -11 -128 -12 -144 -14 -170 -20 -14 -3
-36 -8 -50 -10 -14 -2 -52 -12 -85 -21 -33 -9 -64 -17 -70 -18 -5 -1 -20 -8
-32 -14 -13 -7 -23 -10 -23 -8 0 17 -225 -97 -312 -158 -94 -66 -248 -206
-248 -227 0 -5 -4 -9 -9 -9 -4 0 -21 -19 -37 -42 -16 -24 -34 -48 -41 -55 -10
-12 -70 -132 -106 -213 -24 -57 -66 -177 -69 -202 -2 -13 -7 -29 -12 -36 -4
-7 -6 -16 -3 -19 3 -3 2 -15 -3 -27 -15 -41 -22 -129 -22 -291 0 -177 4 -218
33 -320 83 -294 281 -530 564 -670 22 -11 41 -23 43 -27 2 -5 11 -8 21 -8 9 0
21 -4 26 -8 6 -5 42 -21 80 -36 39 -15 81 -33 95 -39 14 -5 30 -11 36 -13 7
-1 38 -11 70 -22 57 -20 244 -78 349 -109 70 -20 68 -19 85 -26 8 -4 56 -20
105 -36 378 -122 528 -226 574 -398 36 -133 -9 -286 -109 -375 -48 -43 -170
-107 -217 -113 -123 -17 -489 -23 -573 -10 -25 4 -52 7 -60 7 -8 0 -33 5 -55
10 -22 6 -44 11 -50 12 -33 6 -135 42 -135 49 0 4 -6 7 -14 7 -14 0 -91 39
-161 82 -16 10 -45 25 -62 35 -18 9 -33 20 -33 25 0 4 -6 8 -14 8 -8 0 -28 11
-45 26 -16 14 -34 25 -38 26 -4 0 -26 13 -48 28 -100 69 -218 93 -300 61 -74
-28 -156 -119 -212 -235 -78 -159 -94 -283 -51 -391 24 -60 91 -156 154 -219
60 -59 196 -152 304 -206 97 -49 287 -120 359 -135 9 -2 50 -12 91 -24 69 -18
98 -24 170 -36 14 -2 41 -7 60 -10 117 -20 672 -28 765 -12 93 17 121 21 129
19 4 -2 14 3 22 9 8 6 14 9 14 6 0 -7 163 36 245 64 339 117 608 351 747 649
39 83 74 181 83 231 3 18 8 36 10 40 18 28 28 464 13 569 -21 154 -84 318
-172 449 -43 66 -174 206 -249 267 -40 33 -134 94 -145 94 -6 0 -12 4 -14 9
-3 9 -219 121 -233 121 -4 0 -21 6 -38 14 -34 16 -221 79 -247 84 -3 1 -32 11
-65 22 -33 11 -62 21 -65 22 -8 1 -19 4 -105 28 -44 12 -91 24 -105 27 -13 2
-29 8 -36 14 -6 5 -14 6 -17 3 -3 -3 -12 -2 -19 2 -7 5 -20 9 -28 11 -44 7
-244 79 -314 113 -136 67 -223 152 -228 224 -2 20 -7 36 -11 36 -5 0 -6 4 -3
8 3 5 6 35 7 68 2 83 36 153 107 223 99 97 254 162 377 158 25 -1 45 0 45 3 0
13 307 -4 376 -21 100 -24 220 -67 384 -139 317 -140 412 -123 577 105 40 54
108 216 120 283 13 70 6 147 -17 192 -29 57 -102 134 -171 181 -73 49 -232
130 -274 139 -5 1 -16 6 -22 12 -7 6 -13 7 -13 3 0 -4 -6 -3 -12 2 -7 5 -33
15 -58 23 -25 7 -64 19 -88 26 -24 8 -98 25 -165 39 -116 23 -157 29 -272 41
-65 6 -500 15 -506 10z"/>
</g>
</svg>
